<mxfile host="Electron" agent="Mozilla/5.0 (Windows NT 10.0; Win64; x64) AppleWebKit/537.36 (KHTML, like Gecko) draw.io/24.7.8 Chrome/128.0.6613.36 Electron/32.0.1 Safari/537.36" version="24.7.8">
  <diagram id="q6kRX4-M01hZTGkx8Dg6" name="OrderFlow">
    <mxGraphModel dx="979" dy="567" grid="0" gridSize="10" guides="1" tooltips="1" connect="1" arrows="1" fold="1" page="0" pageScale="1" pageWidth="850" pageHeight="1100" math="0" shadow="0">
      <root>
        <mxCell id="0" />
        <mxCell id="1" parent="0" />
        <mxCell id="0NfagcmIJmzYptjgjSYn-4" value="Check-out" style="edgeStyle=orthogonalEdgeStyle;rounded=0;orthogonalLoop=1;jettySize=auto;html=1;" edge="1" parent="1" source="0NfagcmIJmzYptjgjSYn-2" target="0NfagcmIJmzYptjgjSYn-3">
          <mxGeometry relative="1" as="geometry" />
        </mxCell>
        <mxCell id="0NfagcmIJmzYptjgjSYn-2" value="" style="verticalLabelPosition=bottom;shadow=0;dashed=0;align=center;html=1;verticalAlign=top;strokeWidth=1;shape=mxgraph.mockup.misc.shoppingCart;strokeColor=#d79b00;fillColor=#ffe6cc;" vertex="1" parent="1">
          <mxGeometry x="110" y="115" width="50" height="50" as="geometry" />
        </mxCell>
        <mxCell id="0NfagcmIJmzYptjgjSYn-8" value="Place Order" style="edgeStyle=orthogonalEdgeStyle;rounded=0;orthogonalLoop=1;jettySize=auto;html=1;" edge="1" parent="1" source="0NfagcmIJmzYptjgjSYn-3" target="0NfagcmIJmzYptjgjSYn-7">
          <mxGeometry relative="1" as="geometry" />
        </mxCell>
        <mxCell id="0NfagcmIJmzYptjgjSYn-3" value="Checkout" style="rounded=1;whiteSpace=wrap;html=1;fillColor=#fff2cc;strokeColor=#d6b656;" vertex="1" parent="1">
          <mxGeometry x="280" y="120" width="120" height="40" as="geometry" />
        </mxCell>
        <mxCell id="0NfagcmIJmzYptjgjSYn-6" style="edgeStyle=orthogonalEdgeStyle;rounded=0;orthogonalLoop=1;jettySize=auto;html=1;fillColor=#f5f5f5;strokeColor=#666666;endArrow=none;endFill=0;dashed=1;" edge="1" parent="1" source="0NfagcmIJmzYptjgjSYn-5">
          <mxGeometry relative="1" as="geometry">
            <mxPoint x="225" y="140" as="targetPoint" />
          </mxGeometry>
        </mxCell>
        <mxCell id="0NfagcmIJmzYptjgjSYn-5" value="&lt;h1 style=&quot;margin-top: 0px;&quot;&gt;&lt;font style=&quot;font-size: 16px;&quot;&gt;Check out&lt;/font&gt;&lt;/h1&gt;&lt;p&gt;- Seal all items on cart&lt;/p&gt;&lt;p&gt;- Create Checkout Object&lt;/p&gt;&lt;p&gt;- Reset Shoping cart&lt;/p&gt;" style="text;html=1;whiteSpace=wrap;overflow=hidden;rounded=0;fillColor=#f5f5f5;fontColor=#333333;strokeColor=none;" vertex="1" parent="1">
          <mxGeometry x="150" y="240" width="150" height="120" as="geometry" />
        </mxCell>
        <mxCell id="0NfagcmIJmzYptjgjSYn-7" value="Order" style="rounded=1;whiteSpace=wrap;html=1;fillColor=#dae8fc;strokeColor=#6c8ebf;" vertex="1" parent="1">
          <mxGeometry x="520" y="120" width="120" height="40" as="geometry" />
        </mxCell>
        <mxCell id="0NfagcmIJmzYptjgjSYn-10" style="edgeStyle=orthogonalEdgeStyle;rounded=0;orthogonalLoop=1;jettySize=auto;html=1;dashed=1;strokeColor=#666666;align=center;verticalAlign=middle;fontFamily=Helvetica;fontSize=11;fontColor=default;labelBackgroundColor=default;endArrow=none;endFill=0;fillColor=#f5f5f5;" edge="1" parent="1" source="0NfagcmIJmzYptjgjSYn-9">
          <mxGeometry relative="1" as="geometry">
            <mxPoint x="465" y="140" as="targetPoint" />
          </mxGeometry>
        </mxCell>
        <mxCell id="0NfagcmIJmzYptjgjSYn-9" value="&lt;h1 style=&quot;margin-top: 0px;&quot;&gt;&lt;font style=&quot;font-size: 16px;&quot;&gt;Place Order&lt;/font&gt;&lt;/h1&gt;&lt;p&gt;- Create &lt;b&gt;Order &lt;/b&gt;with Payment Info and Delivery Info&lt;br&gt;- Lock Products on Stock&lt;/p&gt;" style="text;html=1;whiteSpace=wrap;overflow=hidden;rounded=0;fillColor=#f5f5f5;fontColor=#333333;strokeColor=none;" vertex="1" parent="1">
          <mxGeometry x="390" y="240" width="150" height="120" as="geometry" />
        </mxCell>
      </root>
    </mxGraphModel>
  </diagram>
</mxfile>
